<?xml version="1.0" standalone="no"?>
<!DOCTYPE svg PUBLIC "-//W3C//DTD SVG 20010904//EN"
 "http://www.w3.org/TR/2001/REC-SVG-20010904/DTD/svg10.dtd">
<svg version="1.0" xmlns="http://www.w3.org/2000/svg"
 width="300.000000pt" height="300.000000pt" viewBox="0 0 300.000000 300.000000"
 preserveAspectRatio="xMidYMid meet">
<metadata>
Created by potrace 1.11, written by Peter Selinger 2001-2013
</metadata>
<g transform="translate(0.000000,300.000000) scale(0.100000,-0.100000)"
fill="#000000" stroke="none">
<path d="M1198 2973 c-10 -2 -18 -9 -18 -15 0 -6 -3 -8 -6 -5 -4 3 -16 1 -28
-5 -11 -7 -24 -11 -28 -10 -5 1 -8 -3 -8 -10 0 -6 -3 -9 -6 -5 -3 3 -23 -5
-44 -18 -21 -13 -41 -21 -44 -18 -3 4 -6 -1 -6 -11 0 -9 -5 -14 -10 -11 -6 3
-13 -1 -16 -9 -3 -9 -10 -13 -15 -10 -5 3 -9 1 -9 -5 0 -5 -9 -13 -20 -16 -11
-4 -18 -11 -15 -16 4 -5 -1 -9 -9 -9 -9 0 -16 -4 -16 -9 0 -5 -16 -26 -35 -45
-19 -20 -35 -41 -35 -47 0 -5 -5 -7 -10 -4 -6 4 -9 3 -8 -2 5 -18 -14 -53 -25
-47 -7 4 -9 4 -5 -1 4 -4 1 -20 -8 -36 -8 -16 -12 -29 -8 -29 4 0 1 -6 -5 -14
-7 -8 -14 -25 -17 -37 -3 -13 -7 -31 -9 -39 -2 -8 -4 -19 -4 -23 -1 -5 -7 -5
-13 -1 -10 6 -10 5 -2 -7 7 -8 10 -27 9 -44 -6 -45 -7 -79 -5 -90 1 -5 1 -25
0 -42 -1 -18 3 -33 8 -33 5 0 8 -13 6 -30 -2 -16 0 -30 4 -30 4 0 9 -11 10
-26 1 -14 7 -35 14 -47 7 -12 11 -28 9 -36 -1 -8 2 -10 10 -6 7 5 10 3 7 -6
-3 -8 0 -19 6 -26 29 -33 34 -41 29 -47 -3 -3 2 -8 11 -12 9 -3 16 -11 16 -18
0 -13 72 -82 83 -78 4 1 7 -4 7 -12 0 -8 5 -18 12 -22 7 -5 8 -2 3 7 -5 8 4 3
18 -10 15 -14 27 -20 27 -15 0 5 4 5 8 -1 12 -17 73 -45 98 -45 13 0 24 -4 24
-10 0 -5 8 -10 19 -10 10 0 24 -6 30 -14 7 -8 21 -12 33 -8 14 3 19 1 14 -6
-5 -8 0 -12 13 -12 31 0 34 -1 61 -15 23 -12 53 -25 73 -30 4 -2 10 -4 15 -5
4 -1 10 -2 15 -1 4 0 7 -4 7 -11 0 -6 3 -9 6 -5 3 3 25 -1 47 -10 23 -8 48
-16 55 -17 8 -1 17 -7 20 -12 4 -5 18 -10 32 -12 13 -1 27 -6 30 -11 3 -4 14
-7 26 -6 25 2 27 -21 5 -46 -9 -10 -34 -38 -55 -62 l-40 -44 -25 23 c-14 13
-34 27 -43 30 -10 3 -18 10 -18 15 0 5 -7 9 -15 9 -9 0 -18 6 -21 13 -3 8 -20
20 -39 27 -19 7 -32 17 -29 22 5 7 -10 12 -28 9 -5 0 -8 3 -8 8 0 5 -13 14
-30 21 -16 7 -30 17 -30 22 0 5 -5 6 -10 3 -5 -3 -10 -2 -10 4 0 6 -11 13 -25
17 -14 3 -25 10 -25 16 0 5 -4 7 -9 3 -5 -3 -12 -1 -16 4 -7 13 -64 41 -82 41
-7 0 -13 5 -13 11 0 5 -4 8 -9 4 -5 -3 -17 2 -25 11 -9 8 -16 12 -16 8 0 -3
-7 -1 -15 6 -8 7 -15 9 -15 5 0 -4 -11 0 -25 9 -14 9 -25 14 -25 10 0 -4 -6
-2 -12 3 -14 11 -68 27 -80 25 -5 -1 -8 3 -8 9 0 5 -4 8 -9 4 -5 -3 -12 -1
-16 4 -3 6 -12 8 -20 4 -9 -3 -15 1 -15 8 0 11 -3 11 -10 -1 -5 -8 -10 -10
-10 -4 0 11 -3 12 -52 17 -15 2 -33 9 -41 15 -9 8 -17 8 -24 1 -8 -8 -13 -8
-17 0 -4 6 -25 11 -47 11 -22 0 -39 5 -39 11 0 8 -4 9 -13 0 -8 -6 -17 -8 -20
-4 -4 3 -24 7 -44 7 -53 1 -76 -24 -75 -83 1 -44 7 -96 12 -96 1 0 3 -9 5 -20
3 -11 6 -31 9 -45 3 -14 9 -39 14 -57 6 -17 8 -34 5 -37 -3 -3 0 -12 7 -21 10
-12 10 -15 -1 -15 -11 0 -11 -2 1 -10 11 -7 11 -10 2 -10 -8 0 -10 -5 -6 -12
11 -18 12 -48 2 -48 -5 0 -6 -5 -2 -11 3 -6 0 -15 -7 -20 -12 -7 -12 -9 0 -9
11 0 10 -5 -5 -20 -34 -34 -49 -54 -46 -62 1 -5 -3 -7 -9 -6 -6 2 -16 -6 -22
-17 -7 -11 -16 -23 -22 -27 -7 -5 -6 -8 1 -8 5 0 10 -11 10 -25 0 -14 -5 -25
-10 -25 -6 0 -5 -4 2 -9 17 -11 17 -21 0 -32 -10 -7 -10 -9 0 -9 6 0 12 -7 12
-15 0 -8 -6 -15 -12 -15 -8 0 -9 -3 -3 -8 6 -4 11 -14 13 -22 2 -8 8 -16 13
-18 5 -2 9 -10 9 -18 0 -8 7 -17 15 -20 8 -4 13 -9 11 -13 -5 -7 40 -46 53
-46 3 -1 16 -6 29 -13 12 -7 22 -10 22 -7 0 7 87 -78 88 -85 0 -3 1 -7 2 -10
9 -23 23 -101 24 -132 1 -16 5 -28 11 -28 7 0 7 -3 0 -8 -11 -7 -16 -52 -6
-52 3 0 7 -15 8 -34 1 -18 11 -50 23 -70 21 -39 70 -93 70 -79 0 4 5 0 11 -9
5 -10 19 -18 29 -18 11 0 20 -4 20 -10 0 -5 7 -10 15 -10 8 0 15 -4 15 -10 0
-5 9 -10 20 -10 11 0 20 -4 20 -9 0 -5 14 -12 30 -16 16 -4 30 -10 30 -14 0
-5 20 -16 44 -26 25 -10 43 -22 40 -27 -3 -4 4 -8 15 -8 12 0 21 -5 21 -11 0
-5 4 -8 9 -5 5 4 11 3 13 -2 3 -6 83 -60 130 -87 9 -5 37 -23 60 -39 79 -54
93 -62 138 -87 25 -13 47 -27 50 -30 15 -18 51 -26 100 -23 81 6 89 8 84 15
-2 4 5 10 16 14 11 3 20 11 20 16 0 6 5 7 10 4 6 -3 10 -1 10 4 0 6 5 11 11
11 7 0 34 16 60 35 27 19 54 35 59 35 6 0 10 5 10 10 0 6 7 10 15 10 8 0 15 5
15 11 0 5 5 7 10 4 6 -3 10 -1 10 6 0 7 3 10 6 6 3 -3 16 4 28 16 11 13 32 28
46 35 36 18 72 39 91 53 10 7 20 11 24 10 4 -2 11 1 14 6 11 15 55 48 48 37
-4 -7 10 -3 30 7 21 11 43 19 50 19 7 0 13 5 13 11 0 6 7 9 15 5 8 -3 15 -1
15 4 0 6 7 10 15 10 8 0 15 5 15 11 0 5 4 8 9 5 10 -7 112 89 104 98 -4 3 -1
6 5 6 6 0 16 16 23 35 7 19 16 35 20 35 4 0 7 6 6 12 -1 30 4 49 11 44 4 -2 7
8 6 22 -1 15 3 35 7 44 6 11 5 18 -4 21 -9 4 -9 6 0 6 7 1 15 17 19 36 3 19
10 35 15 35 5 0 8 3 7 8 -3 12 24 62 34 62 4 0 8 7 8 16 0 8 4 13 9 9 5 -3 12
4 16 15 3 11 13 20 20 20 8 0 22 11 31 25 9 14 20 22 25 19 5 -3 9 -1 9 5 0 5
6 16 13 23 22 23 47 67 47 83 0 8 4 15 9 15 5 0 9 27 9 60 0 33 -5 60 -10 60
-5 0 -7 4 -4 8 5 8 -35 74 -61 100 -12 13 -17 27 -14 45 0 4 -4 7 -11 7 -6 0
-8 3 -5 7 4 3 1 13 -6 21 -10 13 -9 14 2 7 10 -6 12 -4 6 4 -12 20 -13 91 -1
91 6 0 4 5 -4 10 -12 7 -12 10 -1 10 7 0 11 6 7 15 -3 8 -1 15 5 15 6 0 8 9 4
20 -4 12 -2 20 5 20 7 0 10 7 6 15 -3 8 -1 15 4 15 5 0 6 7 3 17 -4 9 -2 14 3
11 5 -3 10 13 10 35 1 23 3 77 6 119 3 42 2 81 -1 86 -4 7 -20 5 -44 -3 -27
-9 -37 -9 -37 -1 0 7 -3 7 -8 1 -6 -9 -31 -15 -72 -19 -8 0 -17 -4 -20 -8 -3
-4 -23 -8 -45 -10 -22 -2 -42 -6 -45 -10 -5 -6 -78 -20 -112 -22 -10 0 -18 -4
-18 -9 0 -5 -9 -7 -20 -4 -11 3 -20 1 -20 -3 0 -5 -11 -7 -25 -5 -14 1 -25 -1
-25 -5 0 -4 -6 -7 -12 -7 -7 0 -23 -3 -35 -7 -14 -4 -23 -3 -24 3 -1 6 -2 17
-3 24 -1 6 3 15 9 19 6 5 5 8 -3 8 -7 0 -11 4 -8 8 5 9 12 44 23 112 10 65 4
180 -9 180 -4 0 -8 7 -8 15 0 19 -19 54 -41 75 -8 8 -21 30 -28 47 -7 18 -17
30 -22 27 -5 -3 -9 9 -9 25 0 17 -4 31 -9 31 -6 0 -8 10 -6 22 3 12 -1 28 -8
37 -10 12 -9 13 3 6 12 -7 13 -6 5 6 -6 8 -19 41 -30 74 -10 33 -24 65 -30 70
-7 6 -11 18 -9 28 1 9 -2 15 -7 11 -5 -3 -9 1 -9 8 0 16 -19 42 -77 106 -23
26 -43 50 -43 55 0 4 -7 7 -15 7 -8 0 -15 8 -16 18 0 11 -2 13 -6 4 -4 -10 -9
-8 -20 7 -8 12 -19 21 -24 21 -6 0 -17 7 -26 15 -8 8 -19 13 -24 10 -5 -4 -9
-2 -9 3 0 10 -82 52 -110 57 -8 1 -14 7 -13 13 2 10 -273 15 -309 5z m134 -39
c6 -4 8 -3 4 4 -4 7 1 10 14 9 11 -1 20 -6 20 -12 0 -5 4 -4 9 3 4 8 12 14 16
14 4 0 12 -6 16 -14 5 -7 9 -8 9 -2 0 6 7 11 15 11 8 0 15 -4 15 -9 0 -5 3 -7
8 -5 4 3 18 0 32 -6 14 -5 32 -11 40 -13 8 -2 16 -8 18 -13 2 -6 11 -11 20
-11 10 0 28 -9 42 -20 14 -11 31 -20 38 -20 6 0 12 -4 12 -10 0 -5 7 -10 15
-10 8 0 15 -4 15 -10 0 -5 5 -10 11 -10 21 0 159 -155 159 -180 0 -6 7 -18 15
-26 8 -9 15 -24 15 -35 0 -10 5 -19 11 -19 6 0 9 -8 7 -17 -2 -10 3 -24 12
-31 13 -11 13 -12 0 -6 -12 6 -13 5 -4 -7 6 -8 12 -22 13 -31 1 -10 2 -29 3
-43 1 -14 7 -25 13 -25 5 0 3 -5 -5 -10 -13 -8 -13 -10 2 -10 11 0 16 -6 13
-18 -3 -16 65 -128 86 -142 5 -3 10 -15 12 -25 2 -11 9 -31 14 -45 6 -14 7
-26 2 -28 -5 -2 -6 -9 -2 -15 9 -15 3 -112 -12 -182 -4 -16 -7 -39 -7 -50 -1
-11 -6 -26 -12 -34 -9 -12 -8 -13 3 -6 10 6 13 4 9 -6 -21 -51 -22 -49 17 -49
20 0 45 5 56 10 14 8 19 7 19 -2 0 -10 2 -10 8 -1 4 6 21 14 37 17 17 2 32 5
35 6 3 1 9 2 14 1 5 -1 16 1 25 5 9 4 28 8 43 9 14 1 33 7 42 14 9 8 16 11 16
8 0 -4 34 2 105 20 11 2 30 6 42 8 11 2 32 6 45 11 59 19 76 11 54 -25 -6 -9
-5 -12 0 -8 6 3 10 -11 9 -34 0 -21 -2 -39 -5 -39 -3 0 -6 -12 -7 -27 -3 -53
-7 -73 -16 -73 -4 0 -5 -4 -2 -10 3 -5 3 -16 -2 -22 -8 -13 -10 -23 -15 -68
-2 -14 -7 -28 -12 -32 -6 -4 -4 -14 5 -24 9 -11 9 -15 2 -10 -7 4 -13 3 -13
-3 0 -5 5 -13 10 -16 7 -5 8 -11 1 -19 -6 -7 -6 -17 -1 -26 6 -8 10 -25 10
-37 0 -13 5 -23 11 -23 5 0 8 -4 4 -9 -3 -5 6 -22 20 -37 14 -15 25 -33 25
-40 0 -8 4 -14 9 -14 20 0 38 -124 20 -136 -5 -2 -5 -12 -2 -21 4 -11 3 -14
-5 -9 -8 5 -12 0 -12 -13 0 -11 -10 -27 -22 -35 -12 -9 -19 -16 -14 -16 12 0
-38 -46 -59 -53 -9 -4 -13 -12 -9 -18 4 -7 3 -9 -3 -6 -11 7 -55 -38 -46 -47
4 -3 -1 -6 -11 -6 -9 0 -15 -4 -11 -9 3 -5 -1 -16 -9 -23 -14 -15 -31 -58 -28
-70 1 -5 -3 -8 -9 -8 -6 0 -9 -9 -6 -20 3 -11 1 -20 -5 -20 -5 0 -8 -8 -7 -17
1 -10 0 -20 -1 -23 -1 -3 -3 -16 -6 -29 -2 -14 -10 -31 -17 -40 -8 -10 -9 -13
0 -8 8 5 7 -1 -2 -20 -8 -16 -18 -40 -24 -55 -6 -16 -15 -28 -21 -28 -5 0 -10
-4 -10 -10 0 -13 -37 -50 -50 -50 -5 0 -10 -4 -10 -10 0 -5 -6 -10 -14 -10 -8
0 -22 -8 -32 -18 -10 -9 -18 -15 -18 -12 -2 9 -156 -62 -156 -72 0 -5 -4 -6
-10 -3 -5 3 -10 1 -10 -5 0 -6 -4 -9 -8 -6 -5 3 -21 -6 -37 -20 -16 -14 -35
-22 -42 -20 -7 3 -13 2 -13 -3 0 -5 -51 -42 -112 -82 -62 -41 -118 -81 -125
-89 -7 -8 -13 -11 -13 -7 0 4 -17 -3 -37 -17 -20 -14 -41 -22 -46 -19 -6 3 -7
1 -4 -4 4 -6 -5 -15 -21 -20 -36 -12 -125 -8 -130 6 -2 6 -10 11 -18 11 -8 0
-17 6 -20 14 -3 8 -12 12 -20 9 -8 -3 -14 0 -14 6 0 6 -7 11 -16 11 -8 0 -13
4 -10 8 3 5 -10 15 -29 22 -19 8 -35 17 -35 22 0 4 -7 8 -15 8 -8 0 -15 5 -15
11 0 5 -4 7 -10 4 -5 -3 -10 1 -10 10 0 9 -4 14 -9 10 -5 -3 -16 2 -24 10 -9
8 -20 15 -26 15 -6 0 -11 5 -11 10 0 6 -9 10 -20 10 -11 0 -20 4 -20 8 0 5
-12 15 -27 23 -16 8 -35 21 -43 30 -8 9 -21 14 -27 12 -7 -3 -13 0 -13 7 0 6
-4 9 -9 6 -5 -3 -12 1 -15 10 -3 8 -10 12 -16 9 -5 -3 -10 -2 -10 2 0 5 -9 14
-21 21 -17 11 -20 11 -13 0 5 -8 0 -7 -12 3 -10 9 -44 28 -74 44 -71 36 -140
83 -140 96 0 6 -6 7 -12 3 -7 -4 -10 -4 -6 1 4 4 2 15 -4 23 -12 14 -17 30
-21 69 -1 13 -4 23 -7 23 -8 0 -6 58 3 66 3 4 3 12 0 18 -8 13 -11 28 -15 74
-1 17 -6 32 -11 32 -5 0 -7 7 -3 15 3 8 1 15 -4 15 -5 0 -6 7 -3 17 4 10 2 14
-4 10 -6 -4 -13 3 -17 16 -3 13 -17 29 -31 37 -14 7 -25 19 -25 27 0 12 -13
17 -32 14 -5 0 -8 3 -8 9 0 6 -3 10 -7 9 -16 -2 -53 14 -53 22 0 5 -7 9 -17 9
-9 0 -14 3 -11 6 4 3 -4 20 -16 38 -13 20 -22 47 -21 67 0 19 -4 37 -10 41 -7
5 -6 8 1 8 6 0 10 12 8 28 -3 31 31 89 59 98 10 3 16 8 13 11 -3 3 3 18 12 32
10 14 19 42 21 61 6 68 6 110 0 110 -4 0 -5 10 -5 23 1 12 -2 28 -7 34 -5 7
-7 20 -3 28 3 8 0 15 -6 15 -6 0 -9 3 -5 6 3 3 1 18 -5 33 -5 14 -11 42 -13
61 -2 19 -4 35 -5 35 -8 0 -7 45 1 61 9 17 19 20 47 18 44 -3 97 -11 132 -19
14 -3 43 -8 65 -11 22 -4 42 -9 45 -13 3 -3 21 -8 40 -10 19 -2 37 -6 40 -10
3 -4 13 -7 23 -8 40 -2 43 -3 30 -11 -8 -5 2 -8 23 -9 20 -1 40 -7 45 -14 4
-7 11 -10 15 -7 4 4 16 1 28 -7 11 -8 28 -15 38 -15 10 0 18 -4 18 -10 0 -5 6
-10 14 -10 17 0 100 -42 104 -53 2 -4 7 -5 12 -2 5 3 14 -1 22 -8 7 -7 34 -23
61 -37 26 -14 47 -28 47 -32 0 -5 5 -8 11 -8 6 0 30 -13 54 -30 24 -16 49 -30
55 -30 6 0 9 -4 6 -8 -3 -5 10 -15 29 -22 19 -7 32 -17 29 -22 -3 -4 2 -8 10
-8 8 0 19 -6 23 -13 4 -8 22 -21 40 -29 30 -15 33 -15 38 3 3 10 18 28 32 39
14 11 23 20 19 20 -4 0 5 11 20 25 15 14 24 25 21 25 -4 0 7 14 23 30 30 31
39 59 20 61 -13 2 -29 6 -35 9 -3 1 -9 4 -15 5 -5 1 -13 4 -17 5 -5 1 -11 2
-15 1 -5 0 -8 4 -8 10 0 5 -4 7 -10 4 -5 -3 -10 -1 -10 5 0 6 -4 9 -8 6 -5 -3
-20 1 -35 9 -15 8 -27 11 -27 8 0 -3 -7 0 -15 7 -8 7 -15 9 -15 4 0 -5 -5 -2
-10 6 -9 13 -10 13 -10 0 0 -13 -2 -13 -9 -1 -5 8 -22 16 -38 19 -15 2 -30 8
-34 13 -3 6 -10 9 -15 7 -5 -1 -19 3 -30 10 -12 6 -24 8 -28 5 -3 -3 -6 -1 -6
6 0 7 -4 10 -9 7 -4 -3 -16 1 -27 8 -10 8 -24 12 -31 9 -7 -3 -13 0 -13 7 0 6
-5 8 -10 5 -5 -3 -10 -1 -10 5 0 6 -4 9 -9 5 -6 -3 -25 3 -44 14 -19 11 -38
17 -41 14 -3 -4 -6 -2 -6 4 0 5 -6 10 -12 10 -23 1 -42 8 -56 21 -7 6 -20 12
-28 12 -8 0 -14 5 -14 10 0 6 -7 10 -15 10 -8 0 -15 5 -15 10 0 6 -7 10 -17
10 -9 0 -14 3 -11 6 4 3 -11 22 -31 42 -42 41 -87 102 -75 102 4 0 -1 6 -12
14 -10 8 -16 18 -11 22 4 4 0 15 -8 24 -9 10 -17 31 -18 49 -1 17 -5 31 -8 31
-6 0 -8 15 -10 63 0 15 -6 27 -12 27 -7 0 -6 4 3 10 12 8 12 10 1 10 -11 0
-11 3 -1 15 7 9 8 15 2 15 -12 0 -11 18 2 39 7 10 6 12 -4 6 -9 -6 -11 -4 -5
5 4 7 9 24 10 39 5 50 16 96 24 101 5 3 7 13 5 23 -1 9 2 17 7 17 5 0 9 9 9
20 0 11 4 20 8 20 5 0 14 16 22 35 8 19 18 35 24 35 5 0 6 3 3 6 -3 4 5 15 18
26 14 11 23 24 20 29 -4 5 -1 9 5 9 7 0 25 14 40 30 15 17 35 30 45 30 9 0 14
4 10 9 -3 5 4 12 15 16 11 3 20 11 20 16 0 6 4 8 9 5 5 -3 14 1 21 9 7 8 16
12 21 10 4 -3 12 3 18 12 6 10 11 14 11 9 0 -4 11 -1 25 8 14 9 25 14 25 11 0
-3 14 1 30 10 17 9 30 12 30 8 0 -4 5 -2 10 3 11 11 73 9 92 -2z"/>
<path d="M1300 2838 c0 -5 -4 -7 -9 -3 -5 3 -12 1 -16 -5 -4 -6 -11 -8 -16 -5
-11 8 -79 -16 -79 -27 0 -4 -3 -7 -7 -6 -21 4 -67 -26 -115 -76 -15 -15 -28
-25 -28 -20 0 4 -11 -6 -23 -24 -13 -17 -27 -29 -30 -25 -4 3 -7 -1 -7 -10 0
-9 -5 -17 -12 -17 -6 0 -8 -3 -5 -6 4 -4 -3 -15 -15 -25 -11 -11 -17 -19 -13
-19 4 0 1 -8 -8 -17 -15 -18 -17 -22 -17 -44 0 -5 -4 -8 -9 -4 -6 3 -8 -4 -6
-15 2 -11 -1 -20 -6 -20 -6 0 -8 -4 -4 -9 3 -5 1 -12 -3 -15 -5 -3 -10 -26
-10 -52 -1 -25 -5 -50 -8 -55 -3 -5 0 -9 6 -9 8 0 8 -6 0 -20 -8 -15 -8 -20 1
-20 6 0 9 -9 6 -20 -3 -11 0 -20 5 -20 6 0 4 -8 -3 -17 -10 -11 -10 -14 -1 -9
11 7 17 -5 13 -28 -1 -5 5 -16 12 -25 8 -9 18 -26 21 -37 8 -27 121 -146 129
-137 4 3 7 -1 7 -11 0 -9 5 -14 10 -11 6 3 10 1 10 -5 0 -6 5 -8 10 -5 6 3 10
1 10 -5 0 -7 7 -9 15 -6 9 3 18 -1 21 -9 4 -8 15 -15 25 -15 10 0 19 -4 19 -8
0 -4 12 -9 27 -10 15 -1 30 -7 34 -13 4 -8 11 -4 18 10 9 16 9 21 0 21 -8 0
-9 4 0 13 6 8 8 17 4 20 -3 4 -1 12 5 20 7 8 7 18 2 27 -5 9 -5 19 2 27 8 10
7 13 -3 13 -11 0 -11 2 1 10 8 5 12 12 8 15 -3 4 -2 20 2 36 6 20 5 29 -3 29
-9 0 -9 2 -1 8 6 4 10 15 8 25 -1 9 2 17 8 17 6 0 8 6 5 14 -3 8 -3 17 1 21 7
6 8 10 11 36 0 5 6 7 13 3 7 -5 8 -3 3 6 -5 8 -1 18 10 27 11 7 16 13 12 13
-4 0 1 8 11 18 9 11 20 17 23 15 4 -1 9 4 13 12 3 8 12 15 21 15 8 0 15 4 15
10 0 5 7 7 15 4 8 -4 15 -1 15 5 0 6 3 10 8 9 6 -1 43 7 77 17 6 1 13 2 16 1
3 0 12 4 20 10 8 5 24 9 37 8 12 0 22 3 22 8 0 5 10 4 21 -3 17 -9 20 -8 14 2
-6 9 -3 11 8 6 10 -3 17 -2 17 4 0 5 6 9 13 7 22 -4 87 13 87 22 0 6 -5 10
-12 10 -6 0 -8 3 -5 7 4 3 0 17 -8 30 -9 13 -13 27 -10 32 2 5 -2 11 -10 15
-8 3 -15 12 -15 21 0 8 -4 15 -10 15 -5 0 -10 7 -10 15 0 8 -4 15 -10 15 -5 0
-10 7 -10 16 0 8 -4 13 -8 10 -5 -3 -15 6 -22 19 -7 13 -17 22 -22 19 -4 -3
-8 2 -8 10 0 9 -7 16 -15 16 -9 0 -18 7 -21 15 -4 8 -10 13 -14 10 -4 -3 -11
2 -14 11 -3 8 -10 13 -15 9 -6 -3 -14 2 -19 11 -5 9 -12 16 -15 16 -16 0 -47
11 -47 17 0 3 -10 6 -22 7 -32 1 -52 7 -60 19 -5 6 -8 5 -8 -3 0 -7 -4 -11 -9
-7 -17 10 -71 13 -71 3z"/>
<path d="M1570 2329 c-19 -9 -38 -15 -43 -12 -4 2 -10 -3 -13 -11 -3 -9 -10
-14 -14 -11 -4 2 -29 -16 -55 -40 -26 -25 -44 -45 -41 -45 3 0 -3 -16 -14 -37
-10 -20 -17 -40 -14 -45 3 -4 -3 -8 -13 -8 -11 0 -14 -3 -7 -8 5 -4 9 -33 9
-64 -1 -37 2 -58 9 -58 6 0 4 -5 -4 -10 -9 -6 -10 -10 -3 -10 6 0 14 -13 18
-30 4 -16 11 -30 16 -30 5 0 9 -7 9 -15 0 -7 8 -19 18 -24 9 -6 14 -11 9 -11
-4 0 9 -15 28 -33 38 -36 108 -77 131 -77 8 0 14 -3 14 -8 0 -4 20 -7 45 -8
25 0 45 5 45 10 0 6 4 5 9 -3 6 -9 11 -10 15 -2 4 6 16 11 26 11 10 0 20 5 22
10 2 6 13 12 25 13 12 0 20 4 18 7 -2 4 9 14 26 24 16 9 27 22 23 27 -3 5 -2
8 3 7 4 -2 18 7 31 20 12 12 19 22 15 22 -5 0 -2 4 6 9 8 5 16 17 17 27 2 9 8
20 14 24 6 4 10 11 9 16 -3 19 1 35 9 30 9 -5 8 35 -1 51 -4 5 -3 13 0 17 10
9 13 36 4 36 -4 0 -7 8 -8 18 -4 54 -38 116 -88 158 -25 22 -48 38 -53 37 -4
-1 -14 5 -23 13 -9 8 -20 14 -25 13 -20 -3 -45 2 -41 9 6 8 -97 7 -111 -2 -6
-3 -12 -3 -14 2 -1 4 -19 0 -38 -9z m154 -35 c59 -5 66 -6 66 -16 0 -4 6 -8
13 -8 14 0 94 -70 81 -70 -5 0 -1 -7 10 -15 10 -7 15 -18 11 -24 -3 -6 -1 -11
5 -11 6 0 8 -4 5 -10 -3 -5 -1 -10 5 -10 6 0 9 -4 5 -9 -3 -5 -1 -13 5 -16 8
-5 7 -11 -1 -21 -6 -8 -7 -14 -2 -14 11 0 11 -29 -1 -48 -4 -7 -2 -12 6 -12
10 0 10 -2 0 -9 -8 -4 -13 -11 -12 -15 4 -12 -22 -66 -31 -66 -5 0 -8 -3 -7
-7 2 -5 -5 -19 -15 -33 -9 -13 -17 -21 -17 -16 0 4 -12 -6 -26 -23 -14 -17
-30 -29 -35 -25 -5 3 -9 0 -9 -6 0 -6 -4 -8 -10 -5 -5 3 -10 1 -10 -5 0 -6 -4
-8 -10 -5 -5 3 -10 1 -10 -4 0 -6 -3 -10 -7 -10 -5 1 -10 0 -13 -1 -12 -6
-110 -5 -110 1 0 6 -29 17 -40 15 -7 -1 -33 20 -85 71 -52 50 -75 95 -78 154
-1 24 -6 47 -12 51 -6 5 -5 8 3 8 8 0 11 9 8 25 -3 14 -1 23 5 20 5 -4 9 2 9
12 1 17 50 107 50 90 0 -4 10 3 23 17 13 13 35 28 50 31 15 4 27 10 27 14 0 4
18 6 41 6 22 0 43 3 45 7 3 5 10 5 17 1 6 -3 29 -8 51 -9z"/>
<path d="M2440 1753 c-14 -2 -32 -7 -40 -10 -8 -4 -19 -7 -25 -8 -23 -3 -101
-29 -112 -37 -7 -5 -13 -4 -16 4 -4 10 -7 10 -18 -1 -12 -12 -12 -13 1 -6 9 5
12 4 7 -1 -5 -5 -21 -9 -37 -10 -16 0 -36 -7 -46 -15 -9 -8 -20 -13 -23 -13
-3 1 -16 -2 -29 -7 -13 -5 -27 -9 -32 -9 -4 0 -10 -7 -14 -15 -3 -8 -15 -15
-26 -15 -11 0 -20 -4 -20 -10 0 -5 -5 -10 -11 -10 -6 0 -23 -9 -39 -20 -15
-11 -30 -17 -34 -13 -3 3 -6 1 -6 -5 0 -7 -7 -12 -15 -12 -8 0 -15 -4 -15 -10
0 -5 -7 -10 -15 -10 -8 0 -15 -5 -15 -11 0 -5 -4 -8 -9 -5 -5 4 -11 3 -13 -1
-1 -5 -23 -21 -48 -38 -68 -46 -128 -95 -114 -95 5 0 -2 -7 -14 -16 -25 -17
-65 -88 -55 -98 4 -3 2 -6 -4 -6 -6 0 -10 -13 -9 -30 1 -16 -2 -30 -7 -30 -4
0 -5 -10 -2 -21 4 -12 3 -19 -1 -16 -5 3 -10 -6 -11 -20 -1 -19 1 -22 8 -12 6
9 9 10 9 2 0 -6 -5 -15 -11 -18 -6 -4 -8 -13 -5 -21 3 -8 2 -14 -2 -14 -4 0
-7 -39 -6 -88 0 -48 -3 -92 -8 -99 -5 -6 -5 -13 -1 -16 4 -3 8 -76 8 -164 0
-94 4 -161 10 -165 6 -5 5 -8 -3 -8 -9 0 -10 -5 -2 -19 7 -13 7 -22 0 -26 -6
-4 -7 -13 -2 -23 10 -21 10 -33 -2 -51 -6 -9 -5 -12 1 -8 6 4 14 0 17 -9 3 -8
2 -12 -3 -9 -6 3 -9 -8 -9 -24 1 -18 5 -28 11 -24 6 4 7 1 2 -8 -14 -22 -13
-48 3 -62 12 -9 16 -9 19 1 3 6 8 10 13 7 5 -3 15 2 24 11 9 8 20 12 26 9 5
-3 10 1 10 10 0 9 5 13 10 10 6 -3 22 2 38 13 26 18 63 35 71 32 2 -1 7 4 12
12 5 7 12 13 16 13 4 1 18 6 31 13 12 7 28 10 34 6 6 -4 8 -3 5 3 -6 10 72 52
82 45 2 -2 8 3 13 12 5 9 13 14 19 11 5 -4 9 -1 9 5 0 6 5 8 10 5 6 -3 10 -1
10 5 0 6 5 8 10 5 6 -3 13 1 16 10 4 9 13 14 20 11 8 -3 14 -1 14 5 0 6 5 7
10 4 6 -3 10 -2 10 4 0 5 9 12 19 16 29 9 128 112 124 127 -2 5 2 8 8 8 6 0 9
7 5 15 -3 8 0 18 7 22 12 8 16 26 20 96 1 20 6 37 11 37 5 0 1 10 -10 22 -10
12 -13 18 -6 14 14 -8 16 12 2 34 -6 9 -5 20 3 29 9 12 9 13 0 7 -11 -6 -15 0
-12 20 0 3 -11 20 -25 38 -14 19 -22 36 -19 40 4 3 1 6 -5 6 -7 0 -12 7 -12
15 0 8 -5 15 -11 15 -5 0 -7 5 -4 10 3 6 1 10 -5 10 -6 0 -8 5 -5 10 4 6 1 17
-5 25 -10 12 -10 19 1 32 8 9 9 14 3 10 -7 -4 -11 2 -11 18 0 14 3 23 6 20 4
-2 7 12 6 31 -1 18 1 34 5 34 4 0 13 14 20 30 7 17 15 28 18 25 3 -3 12 4 19
15 8 11 19 18 24 15 5 -4 9 -2 9 3 0 9 18 17 43 20 9 1 73 64 97 96 13 18 13
19 0 11 -13 -7 -13 -6 -2 7 17 21 24 58 25 140 1 36 4 65 8 63 3 -2 6 2 6 10
0 8 -4 12 -9 9 -4 -3 -8 -1 -8 5 0 5 6 12 13 14 14 6 3 6 -33 0z"/>
<path d="M540 1713 c0 -7 -7 -10 -17 -6 -15 5 -14 3 2 -10 11 -9 16 -17 11
-17 -5 0 -3 -7 4 -15 7 -8 9 -15 5 -15 -5 0 0 -10 11 -22 10 -12 13 -18 5 -13
-10 5 -8 -3 5 -26 10 -19 22 -36 27 -37 4 -2 5 -8 1 -13 -3 -5 0 -9 6 -9 6 0
9 -4 6 -8 -3 -5 4 -19 15 -30 11 -12 17 -22 14 -22 -4 0 12 -18 34 -40 22 -22
45 -40 51 -40 6 0 8 -4 5 -10 -3 -5 1 -10 9 -10 9 0 16 -5 16 -11 0 -5 6 -7
13 -3 6 4 9 4 5 -1 -5 -5 4 -24 18 -43 15 -18 27 -46 29 -60 1 -15 7 -38 14
-51 7 -13 9 -21 3 -17 -12 7 -22 -15 -18 -40 2 -11 0 -21 -5 -24 -4 -3 -9 -12
-11 -20 -2 -8 -13 -25 -25 -39 -12 -14 -20 -28 -18 -32 3 -4 -2 -10 -11 -13
-8 -3 -12 -10 -9 -16 3 -5 1 -10 -4 -10 -6 0 -10 -3 -10 -7 1 -5 0 -10 -1 -13
-8 -20 -5 -158 4 -169 9 -12 8 -13 -2 -7 -11 7 -12 4 -3 -13 7 -11 9 -21 6
-21 -3 0 1 -13 10 -30 18 -34 19 -44 4 -35 -6 4 -5 -2 3 -14 7 -12 16 -21 20
-21 5 0 8 -9 8 -21 0 -11 4 -17 10 -14 5 3 10 0 10 -7 0 -14 34 -48 49 -48 5
0 14 -7 21 -15 7 -8 21 -15 31 -15 11 0 19 -5 19 -11 0 -5 5 -7 10 -4 5 3 10
2 10 -4 0 -5 16 -15 35 -22 19 -7 35 -17 35 -22 0 -5 7 -7 15 -3 8 3 15 1 15
-4 0 -5 11 -12 25 -16 14 -3 25 -10 25 -14 0 -4 11 -11 25 -14 14 -4 25 -11
25 -17 0 -6 5 -7 11 -3 6 3 14 3 18 -2 8 -12 124 -69 134 -66 4 1 10 -5 13
-13 3 -8 10 -12 15 -9 5 3 9 0 9 -5 0 -6 3 -10 8 -9 10 2 46 -14 53 -24 3 -5
16 -10 28 -13 13 -2 29 -9 36 -15 9 -8 14 -6 17 7 7 32 2 689 -6 701 -4 7 -4
12 1 12 9 0 9 97 0 106 -3 3 -3 16 1 28 9 27 8 58 -1 74 -5 7 -3 12 5 12 9 0
9 3 -2 10 -12 8 -12 10 -1 10 11 0 11 3 1 15 -6 8 -9 19 -5 25 3 5 1 10 -6 10
-7 0 -9 3 -6 6 3 4 1 16 -5 28 -7 11 -11 25 -10 29 1 5 -2 6 -8 2 -5 -3 -10
-1 -10 4 0 6 -7 11 -15 11 -8 0 -15 7 -15 17 0 9 -3 13 -7 10 -3 -4 -18 6 -33
21 -14 16 -33 26 -40 24 -9 -3 -11 1 -7 12 4 9 3 15 -2 12 -5 -3 -19 3 -31 14
-13 11 -27 20 -31 20 -4 0 -14 6 -21 13 -7 6 -30 21 -50 32 -21 11 -38 23 -38
27 0 5 -9 8 -19 8 -11 0 -21 4 -23 9 -1 5 -12 11 -23 13 -11 1 -23 7 -27 13
-4 5 -13 10 -20 11 -7 0 -31 8 -53 18 -37 17 -56 23 -78 25 -5 1 -6 5 -3 10 4
5 -5 8 -19 6 -14 -1 -25 2 -25 7 0 5 -4 7 -10 3 -5 -3 -24 0 -42 8 -18 7 -40
13 -48 12 -8 0 -18 4 -22 10 -5 6 -8 5 -8 -4 0 -11 -3 -11 -15 -1 -8 6 -19 9
-25 5 -5 -3 -10 -2 -10 2 0 5 -24 8 -52 8 -29 0 -56 4 -60 10 -5 6 -8 6 -8 -2z"/>
<path d="M2396 1302 c-4 -3 -14 -7 -24 -8 -9 -2 -18 -8 -20 -13 -2 -6 -8 -11
-13 -11 -6 0 -22 -11 -36 -24 -15 -14 -31 -22 -36 -19 -5 3 -6 -4 -2 -18 8
-25 23 -42 113 -135 28 -29 52 -58 52 -64 0 -17 18 -11 34 12 9 12 16 32 16
45 0 12 4 24 9 27 5 3 11 16 14 28 2 13 8 32 12 42 7 15 5 17 -6 11 -12 -8
-12 -6 0 8 20 25 25 87 7 87 -8 0 -16 5 -18 10 -2 6 -14 13 -28 15 -14 3 -35
7 -47 9 -11 3 -24 2 -27 -2z m44 -54 c0 -10 2 -10 8 -1 5 7 13 9 21 3 12 -7
12 -16 2 -52 -7 -23 -13 -50 -14 -59 -2 -9 -10 -24 -20 -33 -16 -17 -19 -16
-45 15 -15 18 -25 38 -24 44 2 5 1 7 -3 3 -4 -3 -15 1 -25 9 -15 13 -16 20 -7
34 6 10 14 16 18 13 4 -2 12 3 17 12 6 11 17 15 31 11 11 -3 19 -1 15 4 -3 5
2 9 10 9 9 0 16 -6 16 -12z"/>
<path d="M520 1281 c0 -7 -6 -11 -13 -8 -8 3 -20 1 -28 -4 -8 -5 -9 -9 -3 -9
6 0 11 -6 12 -12 2 -29 10 -65 19 -88 6 -14 8 -31 6 -37 -3 -7 0 -13 7 -13 7
0 10 -6 7 -14 -11 -28 17 -47 70 -49 46 -2 81 12 66 27 -4 3 -2 6 3 6 5 0 9
15 9 33 -1 17 5 45 12 61 8 15 11 26 5 23 -5 -4 -9 0 -9 8 0 8 4 12 9 9 4 -3
7 13 5 35 l-2 40 -45 -2 c-25 -1 -48 -6 -52 -12 -5 -6 -8 -5 -8 3 0 10 -5 10
-22 1 -27 -15 -28 -15 -39 3 -7 11 -9 11 -9 -1z m126 -66 c0 -14 -2 -25 -6
-25 -4 0 -7 -19 -8 -42 -2 -48 -5 -52 -37 -54 -23 -1 -31 11 -26 39 0 4 -4 7
-10 7 -5 0 -7 4 -4 10 3 5 -1 23 -10 40 -14 28 -13 34 8 31 4 0 7 3 7 7 0 5
18 7 41 5 30 -2 38 0 33 9 -4 7 -3 9 2 5 4 -4 9 -19 10 -32z"/>
</g>
</svg>
